<svg width="24" height="24" viewBox="0 0 24 24" fill="none" xmlns="http://www.w3.org/2000/svg">
    <path
        d="M13.1495 12.0882C13.1378 12.0766 13.1286 12.0628 13.1223 12.0476C13.116 12.0324 13.1128 12.0161 13.1128 11.9997C13.1128 11.9832 13.116 11.967 13.1223 11.9518C13.1286 11.9366 13.1378 11.9228 13.1495 11.9112L17.7806 7.28056C17.9212 7.13974 18.0001 6.94883 18 6.74983C17.9999 6.55082 17.9207 6.36002 17.7799 6.2194C17.639 6.07878 17.4481 5.99986 17.2491 6C17.0501 6.00014 16.8593 6.07933 16.7187 6.22015L12.0881 10.8488C12.0765 10.8604 12.0627 10.8696 12.0475 10.8759C12.0323 10.8822 12.016 10.8855 11.9996 10.8855C11.9831 10.8855 11.9669 10.8822 11.9517 10.8759C11.9365 10.8696 11.9227 10.8604 11.9111 10.8488L7.28046 6.22015C7.21083 6.15049 7.12816 6.09522 7.03718 6.05751C6.94619 6.0198 6.84867 6.00038 6.75018 6.00035C6.55127 6.00031 6.36048 6.07928 6.2198 6.2199C6.07911 6.36052 6.00005 6.55127 6 6.75018C5.99995 6.94909 6.07893 7.13988 6.21955 7.28056L10.8497 11.9112C10.8613 11.9228 10.8705 11.9366 10.8768 11.9518C10.8831 11.967 10.8864 11.9832 10.8864 11.9997C10.8864 12.0161 10.8831 12.0324 10.8768 12.0476C10.8705 12.0628 10.8613 12.0766 10.8497 12.0882L6.21955 16.7193C6.14992 16.789 6.09469 16.8716 6.05702 16.9626C6.01935 17.0537 5.99998 17.1512 6 17.2497C6.00005 17.4486 6.07911 17.6393 6.2198 17.78C6.28946 17.8496 6.37215 17.9048 6.46315 17.9425C6.55416 17.9801 6.65169 17.9995 6.75018 17.9995C6.94909 17.9995 7.13984 17.9204 7.28046 17.7797L11.9111 13.1486C11.9227 13.1369 11.9365 13.1277 11.9517 13.1214C11.9669 13.1151 11.9831 13.1119 11.9996 13.1119C12.016 13.1119 12.0323 13.1151 12.0475 13.1214C12.0627 13.1277 12.0765 13.1369 12.0881 13.1486L16.7187 17.7797C16.8593 17.9204 17.0501 17.9995 17.249 17.9995C17.4479 17.9995 17.6387 17.9206 17.7794 17.78C17.92 17.6393 17.9991 17.4486 17.9991 17.2497C17.9992 17.0508 17.9202 16.86 17.7796 16.7193L13.1495 12.0882Z"
        fill="#9699A9" stroke="#9699A9" stroke-width="0.8" stroke-linecap="round"
        stroke-linejoin="round" />
</svg>
