<svg width="24" height="24" viewBox="0 0 24 24" fill="none" xmlns="http://www.w3.org/2000/svg">
    <g clip-path="url(#clip0)">
        <path
            d="M8.78401 19C8.38053 19.0006 7.98187 18.9122 7.61651 18.741C7.25115 18.5698 6.92809 18.32 6.67041 18.0096L4.25761 14.9424C4.1559 14.819 4.07985 14.6766 4.03393 14.5235C3.98801 14.3704 3.97315 14.2097 3.99021 14.0507C4.00727 13.8918 4.05591 13.7379 4.13329 13.598C4.21066 13.4581 4.3152 13.3351 4.44077 13.2362C4.56633 13.1373 4.7104 13.0644 4.86451 13.0219C5.01861 12.9795 5.17965 12.9682 5.33817 12.9888C5.49668 13.0095 5.64948 13.0615 5.78759 13.142C5.9257 13.2225 6.04633 13.3298 6.14241 13.4576L8.54241 16.4976C8.57081 16.5364 8.60959 16.5665 8.6543 16.5843C8.69902 16.6022 8.74786 16.607 8.79521 16.5984C8.8475 16.5984 8.89912 16.5866 8.94622 16.5639C8.99332 16.5412 9.03468 16.5081 9.06721 16.4672L17.8624 5.45115C17.96 5.3259 18.0815 5.22127 18.2198 5.14332C18.3582 5.06537 18.5106 5.01564 18.6683 4.99704C18.826 4.97843 18.9858 4.99131 19.1385 5.03492C19.2912 5.07853 19.4337 5.15201 19.5578 5.2511C19.6819 5.3502 19.785 5.47293 19.8613 5.61219C19.9376 5.75145 19.9855 5.90446 20.0023 6.06237C20.019 6.22028 20.0042 6.37994 19.9588 6.53209C19.9133 6.68424 19.8382 6.82587 19.7376 6.94875L10.9264 17.976C10.6703 18.2939 10.3466 18.5508 9.97878 18.7279C9.61095 18.9051 9.20826 18.998 8.80001 19H8.78401Z"
            fill="#DD859F" />
    </g>
    <defs>
        <clipPath id="clip0">
            <rect width="16" height="16" fill="white" transform="translate(4 4)" />
        </clipPath>
    </defs>
</svg>
